<?xml version="1.0" encoding="utf-8"?>
<!-- Generator: Adobe Illustrator 28.0.0, SVG Export Plug-In . SVG Version: 6.00 Build 0)  -->
<svg version="1.1" id="Слой_1" xmlns="http://www.w3.org/2000/svg" xmlns:xlink="http://www.w3.org/1999/xlink" x="0px" y="0px"
	 viewBox="0 0 910.5 1000" style="enable-background:new 0 0 910.5 1000;" xml:space="preserve">
<style type="text/css">
	.st0{fill:#020A0A;}
	.st1{fill:#FFFFFF;}
</style>
<path class="st0" d="M445.5,995.3c-130.3-60.5-243.5-159.5-318.6-279S12.1,458.2,2.4,279.4c-3.1-57.8-3.1-130.1,0-220.9L3,39.3
	l18.8-3.1c286.9-48.2,579.9-48.2,866.8,0l18.8,3.1l0.7,19.2c3.1,90.9,3.1,163,0,220.9c-9.7,178.7-49.3,317.6-124.5,436.9
	S595.3,934.8,465,995.3l-9.6,4.7L445.5,995.3z"/>
<path class="st1" d="M455.4,19.9c145.1,0.1,289.9,12.6,432.8,37.4c2.2,59.1,4.7,150.5,0.5,228.1c-9.4,172.9-47.5,307.2-119.8,422.4
	S585.1,921.5,455.4,980.2C325.7,921.5,214.1,822.7,142,707.8S31.6,458.3,22.2,285.4c-4.2-77.5-1.7-168.9,0.5-228.1
	C165.6,32.6,310.3,20.1,455.4,19.9z M455.4,36.6c-139.6,0.1-279,11.8-416.7,34.9c-3.1,87.8-3.1,157.5,0,213.1
	c9.2,170,46.5,301.7,117.3,414.4S332.8,904.9,455.4,962C577.9,904.9,684,811.8,754.8,699s108-244.5,117.3-414.4
	c3.1-55.5,3.1-125.4,0-213.1C734.4,48.4,595,36.7,455.4,36.6z M454.2,541.5c0,0,2.7,16.2,3.5,20.9c0.6,2,0.6,4,0,6
	c-2.2,8.4-12.2,52.6-20.3,97.9l-1.3,7.1c-3.1,19.1-6.3,38-7.8,54.2c-1.1,6.6-0.5,13.3,1.8,19.6c6.9,23.1,32.3,83.3,37.2,94.3
	c0.5,1.2,0.9,2.5,1,3.8l0,0l1.8,14.2c-8.1-12.3-52.5-93.8-69.9-139c-2.1-5.3-2.4-7.9-0.2-17.7C412.2,651,445,562.7,454.2,541.5z
	 M389.5,416.2c0,0,3.4,11,6.7,23l1.2,4.3c1.9,6.7,3.4,13.5,4.6,20.4c0.8,3.5,0.4,7.2-1.1,10.5c-4,10.8-11.5,28.2-19.4,45.8l-3.4,7.6
	c-9.7,21.5-19.6,42.3-24.4,51.2c-2.3,4.4-5.4,8.4-9,11.8c-10.2,10.3-29.6,29.9-41.6,40.7c-3.7,3.2-6,7.7-6.4,12.5
	c-1.4,8.2-2.9,22.3-3.1,29.6c-0.4,5.6,1.1,11.1,4.3,15.7c21.2,37.8,91.9,124.8,112,143.1c1.7,1.6,3.6,3,5.6,4.3
	c3,2,12.5,8.2,12.5,8.2c0.4,0.3,0.7,0.6,1,1l0,0l3.5,6.3l-0.9-0.5l-1.5-0.8l-4.7-2.3l-4.5-2.3c-6.9-3.4-15.1-7.6-19.4-9.9
	c-1.8-1-3.4-2.1-5-3.4c-23.6-19.6-95.9-104.3-117.1-139.6c-5.3-8.8-5.9-11.7-5.1-20c1.3-15.7,3.4-35.1,5.2-43.7
	c0.8-4.8,2.9-9.3,6.3-12.8c13.3-15.3,29.5-35.6,45.4-56.4l5.3-7.3c24-31.8,46-63.8,54.3-80c1.5-2.6,2.2-5.5,2.1-8.5
	c-0.6-11.7-1.9-23.3-4-34.8c-0.1-0.8-0.1-1.6,0-2.4l0,0L389.5,416.2z M586.9,397.2l6.3,2.7c1.8,0.8,3.5,1.9,4.8,3.4
	c37.6,39.1,67.5,79.7,73.4,90.4c1.2,2,1.9,4.2,2.2,6.5c6.1,57,1.8,114.7-12.8,170.2c-0.9,4.4-3.5,8.2-7.2,10.6
	c-14.7,11.1-36.6,28.7-58.4,46.7l-6.9,5.7c-26.3,21.8-51.2,43.1-61.8,52.9c-2.7,2.5-5,5.3-6.9,8.4c-5,8.1-12.5,21.9-16.3,28.9
	l-1,1.9l-1.2,2.2c-5-10.8-15.7-37.1-19.4-47.7c-1.3-3.2-1.3-6.7,0-9.9c6-21.9,34.5-86.2,40-97.8l0,0v4.7c0,0.7-0.1,1.4-0.3,2
	c-2.5,7.6-17.8,58.1-20.9,80c-0.7,3.6-0.7,7.3,0,11c1.8,9.8,4.3,19.5,7.5,29c2.1-4.3,4.4-8.5,7-12.5c1.5-2.3,3.3-4.4,5.4-6.3
	c13.7-13.5,37-34.5,61.3-55.5l8.6-7.4c18.8-16,37.3-31.7,52.1-43.6c3.7-2.5,6-6.6,6.3-11.1c4.2-29,5.5-81.1,2.9-119.1
	c-0.5-7.2-2.8-14.1-6.8-20c-10.9-15.6-23.3-30.1-37-43.2c-2.4-2.4-4-5.4-4.6-8.7c-4.9-26.1-15.7-73.8-15.7-73.8L586.9,397.2z
	 M270,457.5c2.3-0.8,4.8-0.9,7.2-0.3c10.7,2.6,33.3,8.1,50.4,12.5c2.7,0.9,5.1,2.6,6.7,5l0,0l3.7,6.3c1.3,2.2,1.4,4.8,0.3,7.1
	c-3.1,6-7.6,14.2-12.2,22.6l-3.5,6.3c-6.5,11.6-13,22.8-16.7,28.6c-1.6,3.4-4.5,6-8.1,7.1c-16.8,5.9-37.6,13-50.2,17
	c-2.1,0.4-3.5,2.5-3.1,4.6c0,0.2,0.1,0.4,0.2,0.6c0.9,5.1,3.8,22.5,4.9,27.6c0.3,2,2.2,3.3,4.2,3c0.2,0,0.3-0.1,0.5-0.1
	c7.3-1.4,26.9-6.3,26.9-6.3l-9.2,8.5c-0.6,0.6-1.4,1-2.2,1.3c-5.3,1.8-18.3,5.4-22.4,6.3c-3.1,0.7-5.2-0.6-6-4.1
	c0,0-5.5-23.6-7.6-31.6c-0.3-1.2-0.6-2.3-1-3.5c-1.5-4.6-5.1-13.8-7.1-18.6c-0.2-0.6-0.4-1.2-0.3-1.8c0-5.5,1.1-17.7,1.1-17.7
	s12,11.2,17.7,15.3c1,0.9,2.4,1.2,3.7,0.7c8-2,26.2-8.1,36.3-11.8c2.3-0.9,4.3-2.3,5.9-4.2c11.7-14.5,22-30.1,30.8-46.6
	c1-2,1.2-4.4,0.6-6.5l0,0l-1.6-5.3c-0.6-1.7-1.9-3.2-3.6-3.9c-17.7-6.7-31.6-11.7-48-17.3l0,0L270,457.5z M619.7,305.7
	c3.9-1.4,8.2-1.3,12,0.3c29.7,12.5,79.5,41.8,107.2,62.4c2.4,1.4,4,3.8,4.5,6.6c6.5,29.6,9,75.4,4.9,113.9c-0.3,2.6-1,5.1-2.3,7.4
	c-17.6,35.9-37.3,69.7-58.1,95.9l0,0v-0.4c0.3-2.8,1.8-18.4,1.8-26.9c0-0.9,0.5-1.8,1.2-2.4c3.9-3.1,9.2-7.3,12.2-9.9
	c1.2-1,2.3-2.1,3.1-3.4c8.5-13.7,23.6-42.4,29.7-59.6c1.5-4.2,2.1-8.7,1.7-13.1c-1.9-24-5.7-57.4-11.3-79.1
	c-0.9-3.7-3.4-6.8-6.8-8.6c-4.9-2.5-14.4-6.8-36-15.7c-3-1.2-5.8-2.9-8.3-5c-14.2-11.9-36.4-29.8-50.2-40.2c-4-3.1-9.2-4.2-14.1-3.1
	c-10.1,2.3-22.9,5.5-30.1,7.4c-1.9,0.6-4,0.8-6,0.4l-4.8-0.5l-2.7-0.3l-7.3-0.6h-0.5C582.9,320.4,605.5,310.8,619.7,305.7z
	 M306.3,500.1c-6.9,11.5-14.5,22.5-22.8,33c-0.9,1.1-2,1.9-3.3,2.4c-7.3,2.7-19.3,6.8-28.2,9.4l0,0L306.3,500.1z M209.1,484.2
	l-4.3,29.9L190,496.8C192.7,490.9,200.6,485.5,209.1,484.2L209.1,484.2z M288.5,314.6l-4,5l-0.7,0.7c-3.5,2.6-18.5,14.1-22.5,17.3
	c-1,0.7-1.7,1.9-1.9,3.1c-0.9,5-2.4,14.7-2.9,20c0,1.4-1,2.6-2.4,3c-6.9,2.8-15.1,5.8-21.8,8.4c-1,0.3-1.9,0.8-2.7,1.4
	c-0.7,0.5-9.4,8.4-9.4,8.4s19.2-4.7,26.2-6.3c1.3-0.4,2.8-0.2,3.9,0.5c1.4,0.7,3.9,1.6,5.1,2.1c1.6,0.7,3.5,0.7,5.1,0.2
	c7.9-1.8,21.3-4.9,28.2-6.8c3.2-0.8,6.2-2.2,8.8-4.1c3.4-2.4,12-8.8,12-8.8s-0.2,1.1-0.3,1.8c-0.1,0.5-0.3,0.9-0.6,1.3
	c-1.8,2.1-4.8,5.5-6.3,7.1c-2.7,3-6.1,5.3-9.9,6.7c-20.2,8.4-54.6,21.4-80.4,30.4c-1.4,0.4-2.7,1.2-3.7,2.4
	c-1.3,1.4-3.1,3.4-3.1,3.4s21.1,1.5,27.5,2.3c1.9,0.2,3.7,1,5.2,2.3c5.3,4.5,22.8,22.6,28,28.8c0,0-49.7,8.3-72.7,14
	c-2.4,0.5-4.4,2.4-4.9,4.8c-1.9,6.7-6.3,28.2-6.3,28.2c-1.3-0.5-2.6-1.1-3.8-1.8c-1.5-0.9-2.9-2-4-3.4c-6.8-7.3-13-15.1-18.8-23.2
	c-1.5-1.8-1.6-4.4-0.2-6.3c4.7-5.8,14-16.3,19.2-21.7c0.8-0.9,1.5-2,2-3.1c2-5,3.6-10.1,4.8-15.4l0.3-1l0,0l0,0l0,0l-0.9,0.6
	l-4.2,2.7c-1,0.5-1.8,1.3-2.3,2.4c-0.8,1.8-2.3,4.5-3.4,6.5c-0.5,0.8-1.2,1.4-1.9,2c-6.6,5-13.9,10.5-19.1,14.1
	c-0.4,0.2-0.8,0.2-1.1-0.2c-0.7-0.7-3.4-3.8-3.9-4.5c-0.4-0.6-0.6-1.2-0.6-1.9c0-1.3,0-3.6,0.3-5.4c0.3-1.7,0.8-3.1,3.1-5.6
	c2.4-2.4,5.8-5.9,9-9c7.8-6.6,27.5-22.5,62.7-47.6c0.7-0.5,1.3-1,1.8-1.7c3.7-5,14.2-18.6,16.8-21.9c0.4-0.5,0.8-0.9,1.2-1.3
	c3.3-2.7,6.8-5.1,10.4-7.3c9.8-6.3,28.7-17.4,39.3-23.6L288.5,314.6z M502.6,303.5c1.5-0.3,3,0,4.3,0.6l0,0l10.2,4.9
	c1,0.5,1.7,1.4,2,2.5c1.4,5.9,3.1,13.7,4.2,20.3c0.5,2.8,0,5.6-1.4,8c-4.2,7.4-13,20.7-17.8,27.8c-1,1.6-1.3,3.6-0.9,5.5
	c2.3,12.2,11.7,54.9,11.7,54.9l0,0l-5.8-5.3c-1.1-1-1.9-2.3-2.4-3.7c-4.1-12.1-11.8-37.4-15.4-49.6c-0.6-2-0.2-4.2,1.2-5.8
	c6-7.4,14.9-19.1,20-26.6c1.5-1.7,1.9-4.1,1.1-6.3c-1.2-2.4-3.1-6.3-5.1-9.4c-0.5-0.9-1.4-1.6-2.4-1.9l0,0l-7-2.2
	c-1.2-0.4-2.5-0.4-3.7,0c-15.2,5.5-35.6,13.4-48.1,18.6c-1.5,0.7-3.2,0.9-4.8,0.5c-3.6-0.5-14.1-2.4-19.3-3.4
	c-0.7-0.2-1.2-0.9-1.1-1.6c0-0.1,0.1-0.3,0.2-0.4l0,0l6.3-10.6c0.8-1.4,2.2-2.5,3.8-2.8C451.9,313.1,477.9,307.9,502.6,303.5
	L502.6,303.5z M284.7,352.3c0.9-0.1,1.8,0.5,2.2,1.3c1.1,2.9,1,6.1-0.3,8.8c-0.6,1.2-1.8,2.1-3.1,2.5l0,0l-9.8,2.2
	c-0.5,0.1-1-0.2-1.1-0.7c0-0.1,0-0.2,0-0.2l0,0l0.9-11.5c0.1-0.8,0.7-1.4,1.5-1.5l0,0L284.7,352.3z M396.5,278.1
	c0.8,0,1.5,0.7,1.5,1.5c0,0.3-0.1,0.5-0.2,0.7l0,0l-23.9,41.3c-1.3,2.4-3.6,4.3-6.3,5l0,0l-44.9,14.1c-4.9,1.5-9.9,2.5-15,2.9
	c-10,0.8-39.6,1.7-39.6,1.7l0,0l0.7-1.4c0.3-0.7,0.9-1.2,1.5-1.5l0,0l14-6c1-0.4,2-1.1,2.7-2l0,0l21.6-26.6c1.2-1.5,2.6-2.7,4.3-3.6
	c18.6-9.5,37.8-17.8,57.5-24.8c1.8-0.6,3.8-0.9,5.7-0.9l0,0L396.5,278.1z M372.5,230.1c60.1-4.9,120.6-5.1,180.7-0.7
	c3.6,0.3,7.2,1.1,10.6,2.6c21,8.8,58.2,28.2,99.6,51.9c1.8,1,3.5,2.3,5.1,3.6c11,9.7,38.8,38.1,38.8,38.1l0,0l-8.7-1.7
	c-1.2-0.2-2.4-0.7-3.4-1.4c-20.7-13.9-42.2-26.5-64.3-38c-2.6-1.3-5.3-2.1-8.1-2.4c-10.4-1.1-24.5-2.1-33.8-2.5
	c-4.2,0-8.4-1.1-12.1-3.1c-8.5-4.3-29.1-13.7-39.4-17.6c-3.4-1.5-7.2-2.2-10.9-2c-17.6,0.3-57.8,1.5-78.4,2.8
	c-0.7,0.1-1.4,0.1-2.1,0l0,0l-9.8-1.5c27.7-4.8,96.3-10.9,124.7-12.5l0,0l-11.6-3.9c-2.2-0.7-4.6-1.1-6.9-1.2
	c-6.3,0-19.9-0.4-37.6-0.4h-6.1c-27,0-61.6,0.7-93.6,3.1c-2.8,0.2-5.5,0.9-8.1,2c-12.9,5.7-44.4,22.8-76,40.3l-7,3.9L290.2,303
	l4.7-6c0.5-0.7,1.1-1.2,1.8-1.6l10-6.6l3.1-2.2l6.3-4.2l1.9-1.4c9.4-7.2,24.5-19.8,33.5-27.7c2-1.8,3.8-3.9,5.1-6.3
	c2.9-4.7,6-9.8,8-12.5C366.4,231.9,369.4,230.3,372.5,230.1L372.5,230.1z M161.5,116.1c12.3-1.3,19.1,3.5,19.1,15.9l0,0v6.9
	c0,12.5-6.8,17.8-19.1,19.1c-16.9,1.8-33.9,3.7-50.8,5.8l0,0v18.8l-10.7,1.3l0,0v-60.6C120.5,120.6,141,118.2,161.5,116.1z
	 M729.8,114.1c27,2.6,54,5.7,80.9,9.1l0,0v9.8c-11.6-1.5-23.3-2.9-35-4.2l0,0v50.8l-10.7-1.2l0,0v-50.8c-11.7-1.3-23.5-2.5-35.3-3.7
	l0,0V114.1z M281.3,106.2v9.8c-22.2,1.4-44.4,3-66.6,4.9l0,0v14.9c19.7-1.7,39.5-3.2,59.2-4.4l0,0v9.8c-19.7,1.3-39.5,2.7-59.2,4.4
	l0,0v16.4c22.2-1.9,44.4-3.5,66.6-4.9l0,0v9.8c-25.7,1.6-51.4,3.5-77,5.8l0,0V112C230,109.7,255.6,107.7,281.3,106.2L281.3,106.2z
	 M626.7,122.8c0-13.6,6.7-16.4,21.9-15.4c13.3,0.9,26.7,2,40,3.1c13.2,1.1,21.9,4.8,21.9,18.8l0,0v27.1c0,13.6-7.5,16.1-21.9,14.9
	c-13.3-1.1-26.6-2.2-40-3.1c-14.5-1-21.9-3.8-21.9-18.2l0,0V122.8z M523.4,101.6c25.7,0.6,51.4,1.6,77.1,2.9l0,0v9.8
	c-22.2-1.1-44.4-2-66.7-2.6l0,0v14.9c19.8,0.5,39.6,1.3,59.3,2.3l0,0v9.8c-19.8-1-39.5-1.7-59.3-2.3l0,0v16.4
	c22.2,0.6,44.5,1.5,66.7,2.6l0,0v9.8c-25.7-1.3-51.4-2.3-77.1-2.9l0,0V101.6z M389.6,101.6v43.9c0,13.9-7.3,16.9-21.9,17.4
	c-12.8,0.4-25.5,0.9-38.3,1.4c-13.6,0.6-21.9-2-21.9-15.7l0,0v-43.9l0,0l10.4-0.5v45.7c0.1,2.8,2.4,5,5.2,4.9c0.1,0,0.2,0,0.4,0
	c16.7-0.8,33.4-1.4,50.2-1.9c2.9,0,5.3-2.3,5.3-5.2c0,0,0,0,0-0.1l0,0V102L389.6,101.6L389.6,101.6z M642.7,116.8
	c-2.8-0.3-5.2,1.7-5.5,4.5c0,0.2,0,0.5,0,0.7l0,0v30c0.1,3.1,2.5,5.6,5.5,5.9c17.3,1.1,34.6,2.5,51.8,3.9c2.9,0.1,5.4-2.2,5.5-5.1
	l0,0v-30c-0.1-3.1-2.4-5.6-5.5-6C677.2,119.2,659.9,117.9,642.7,116.8L642.7,116.8z M435.8,100.9c19.2-0.1,38.3-0.1,57.5,0.2l0,0
	v9.8c-20.5-0.3-41-0.3-61.5-0.2c-2.9,0.1-5.3,2.3-5.5,5.2l0,0v30.4c0.2,3,2.6,5.3,5.5,5.5c18.4-0.2,36.7-0.2,55.1,0l0,0v-16.4
	c-10.7-0.1-21.3-0.2-32-0.2l0,0v-9.8c14.1,0,28.3,0.1,42.4,0.3l0,0v35.9c-19.9-0.3-39.7-0.4-59.6-0.3c-14.5,0-21.9-2.4-21.9-16.5
	l0,0v-26.4C415.8,105.3,422.4,101,435.8,100.9L435.8,100.9z M165.6,125.6h-0.8c-18,1.9-36,3.9-53.9,6.1l0,0V154
	c18-2.2,36-4.2,53.9-6.1c2.8-0.4,5-2.6,5.4-5.5l0,0v-12.2c-0.2-2.7-2.6-4.8-5.3-4.6c-0.1,0-0.2,0-0.2,0L165.6,125.6z"/>
</svg>
